walking_01
version=1
nRows=18
nColumns=46
inDegrees=yes
endheader
time	ground_force3_vx	ground_force3_vy	ground_force3_vz	ground_force3_px	ground_force3_py	ground_force3_pz	ground_torque3_x	ground_torque3_y	ground_torque3_z	ground_force5_vx	ground_force5_vy	ground_force5_vz	ground_force5_px	ground_force5_py	ground_force5_pz	ground_torque5_x	ground_torque5_y	ground_torque5_z	ground_force4_vx	ground_force4_vy	ground_force4_vz	ground_force4_px	ground_force4_py	ground_force4_pz	ground_torque4_x	ground_torque4_y	ground_torque4_z	ground_force1_vx	ground_force1_vy	ground_force1_vz	ground_force1_px	ground_force1_py	ground_force1_pz	ground_torque1_x	ground_torque1_y	ground_torque1_z	ground_force2_vx	ground_force2_vy	ground_force2_vz	ground_force2_px	ground_force2_py	ground_force2_pz	ground_torque2_x	ground_torque2_y	ground_torque2_z
4.522000	-30.592133	601.819214	109.877228	0.265162	0.000000	-0.459523	0.000013	-1.334241	0.000012	-0.000000	-0.000000	0.000000	0.200000	0.000000	-1.504000	0.000000	0.000000	-0.000000	4.046081	95.177605	-4.100326	0.274492	0.000000	-0.603449	-0.000003	0.140241	0.000000	-0.000000	-0.000000	0.000000	0.200000	0.000000	0.904000	0.000000	0.000000	-0.000000	-0.000000	-0.000000	0.000000	0.400000	0.000000	0.302000	0.000000	0.000000	-0.000000	
4.523000	-31.718241	602.139404	109.553947	0.265374	0.000000	-0.461442	0.000023	-1.205433	0.000008	-0.000000	-0.000000	0.000000	0.200000	0.000000	-1.504000	0.000000	0.000000	-0.000000	4.211756	95.177956	-4.907076	0.276561	0.000000	-0.595884	0.000002	0.395502	0.000001	-0.000000	-0.000000	0.000000	0.200000	0.000000	0.904000	0.000000	0.000000	-0.000000	-0.000000	-0.000000	0.000000	0.400000	0.000000	0.302000	0.000000	0.000000	-0.000000	
4.524000	-32.200863	600.246216	108.102440	0.265755	0.000000	-0.462848	0.000028	-1.298946	0.000000	-0.000000	-0.000000	0.000000	0.200000	0.000000	-1.504000	0.000000	0.000000	-0.000000	3.239324	95.819420	-4.741443	0.274250	0.000000	-0.600755	0.000006	0.166742	-0.000001	-0.000000	-0.000000	0.000000	0.200000	0.000000	0.904000	0.000000	0.000000	-0.000000	-0.000000	-0.000000	0.000000	0.400000	0.000000	0.302000	0.000000	0.000000	-0.000000	
4.525000	-32.200863	598.666016	108.585487	0.266016	0.000000	-0.465556	0.000019	-1.368632	0.000010	-0.000000	-0.000000	0.000000	0.200000	0.000000	-1.504000	0.000000	0.000000	-0.000000	4.210212	99.013313	-4.579889	0.273384	0.000000	-0.609804	-0.000003	0.425474	0.000002	-0.000000	-0.000000	0.000000	0.200000	0.000000	0.904000	0.000000	0.000000	-0.000000	-0.000000	-0.000000	0.000000	0.400000	0.000000	0.302000	0.000000	0.000000	-0.000000	
4.526000	-33.809589	599.933960	108.101761	0.266223	0.000000	-0.465897	0.000015	-1.254935	0.000014	-0.000000	-0.000000	0.000000	0.200000	0.000000	-1.504000	0.000000	0.000000	-0.000000	4.049169	99.014664	-5.225085	0.273754	0.000000	-0.604594	0.000002	0.442110	0.000001	-0.000000	-0.000000	0.000000	0.200000	0.000000	0.904000	0.000000	0.000000	-0.000000	-0.000000	-0.000000	0.000000	0.400000	0.000000	0.302000	0.000000	0.000000	-0.000000	
4.527000	-33.487846	600.251160	108.262207	0.266252	0.000000	-0.466379	0.000023	-1.531434	0.000024	-0.000000	-0.000000	0.000000	0.200000	0.000000	-1.504000	0.000000	0.000000	-0.000000	3.559865	100.941765	-5.224065	0.269918	0.000000	-0.607042	0.000002	0.144127	0.000002	-0.000000	-0.000000	0.000000	0.200000	0.000000	0.904000	0.000000	0.000000	-0.000000	-0.000000	-0.000000	0.000000	0.400000	0.000000	0.302000	0.000000	0.000000	-0.000000	
4.528000	-33.166100	597.727722	106.971825	0.266912	0.000000	-0.468240	0.000019	-1.701582	0.000010	-0.000000	-0.000000	0.000000	0.200000	0.000000	-1.504000	0.000000	0.000000	-0.000000	4.044537	100.932358	-5.062511	0.275592	0.000000	-0.604313	0.000005	0.303039	0.000003	-0.000000	-0.000000	0.000000	0.200000	0.000000	0.904000	0.000000	0.000000	-0.000000	-0.000000	-0.000000	0.000000	0.400000	0.000000	0.302000	0.000000	0.000000	-0.000000	
4.529000	-33.809593	597.100464	106.487419	0.267263	0.000000	-0.469928	0.000012	-1.534933	0.000017	-0.000000	-0.000000	0.000000	0.200000	0.000000	-1.504000	0.000000	0.000000	-0.000000	3.880406	102.533516	-5.865182	0.273793	0.000000	-0.604895	0.000003	0.301120	0.000002	-0.000000	-0.000000	0.000000	0.200000	0.000000	0.904000	0.000000	0.000000	-0.000000	-0.000000	-0.000000	0.000000	0.400000	0.000000	0.302000	0.000000	0.000000	-0.000000	
4.530000	-33.970463	597.729370	106.002327	0.267004	0.000000	-0.470755	0.000006	-1.780153	0.000014	-0.000000	-0.000000	0.000000	0.200000	0.000000	-1.504000	0.000000	0.000000	-0.000000	4.204034	101.892395	-5.544115	0.277483	0.000000	-0.596139	0.000008	0.392630	0.000002	-0.000000	-0.000000	0.000000	0.200000	0.000000	0.904000	0.000000	0.000000	-0.000000	-0.000000	-0.000000	0.000000	0.400000	0.000000	0.302000	0.000000	0.000000	-0.000000	
4.531000	-34.935703	595.518616	106.164139	0.267333	0.000000	-0.472813	0.000021	-1.531117	0.000010	-0.000000	-0.000000	0.000000	0.200000	0.000000	-1.504000	0.000000	0.000000	-0.000000	3.558320	103.171959	-6.188290	0.273740	0.000000	-0.605754	0.000006	0.251529	-0.000001	-0.000000	-0.000000	0.000000	0.200000	0.000000	0.904000	0.000000	0.000000	-0.000000	-0.000000	-0.000000	0.000000	0.400000	0.000000	0.302000	0.000000	0.000000	-0.000000	
4.532000	-35.579193	596.472290	105.034538	0.267591	0.000000	-0.473440	0.000021	-1.535633	0.000007	-0.000000	-0.000000	0.000000	0.200000	0.000000	-1.504000	0.000000	0.000000	-0.000000	4.526121	105.098061	-5.544115	0.272127	0.000000	-0.605606	0.000002	0.354182	0.000003	-0.000000	-0.000000	0.000000	0.200000	0.000000	0.904000	0.000000	0.000000	-0.000000	-0.000000	-0.000000	0.000000	0.400000	0.000000	0.302000	0.000000	0.000000	-0.000000	
4.533000	-36.383556	593.001465	104.227882	0.268516	0.000000	-0.475528	0.000015	-1.413679	0.000010	-0.000000	-0.000000	0.000000	0.200000	0.000000	-1.504000	0.000000	0.000000	-0.000000	4.363533	103.813454	-6.510380	0.276959	0.000000	-0.598935	0.000005	0.403369	0.000001	-0.000000	-0.000000	0.000000	0.200000	0.000000	0.904000	0.000000	0.000000	-0.000000	-0.000000	-0.000000	0.000000	0.400000	0.000000	0.302000	0.000000	0.000000	-0.000000	
4.534000	-37.027046	595.213501	103.743477	0.268350	0.000000	-0.475927	-0.000005	-1.293603	0.000008	-0.000000	-0.000000	0.000000	0.200000	0.000000	-1.504000	0.000000	0.000000	-0.000000	3.395732	105.741211	-6.346786	0.270146	0.000000	-0.603532	0.000005	0.263833	0.000002	-0.000000	-0.000000	0.000000	0.200000	0.000000	0.904000	0.000000	0.000000	-0.000000	-0.000000	-0.000000	0.000000	0.400000	0.000000	0.302000	0.000000	0.000000	-0.000000	
4.535000	-36.866177	592.687134	102.291954	0.268669	0.000000	-0.477190	0.000021	-1.286194	0.000003	-0.000000	-0.000000	0.000000	0.200000	0.000000	-1.504000	0.000000	0.000000	-0.000000	3.880406	104.454926	-6.509360	0.277562	0.000000	-0.594099	0.000003	0.414839	-0.000001	-0.000000	-0.000000	0.000000	0.200000	0.000000	0.904000	0.000000	0.000000	-0.000000	-0.000000	-0.000000	0.000000	0.400000	0.000000	0.302000	0.000000	0.000000	-0.000000	
4.536000	-37.670540	593.321289	101.323822	0.268751	0.000000	-0.478305	0.000017	-1.178823	-0.000000	-0.000000	-0.000000	0.000000	0.200000	0.000000	-1.504000	0.000000	0.000000	-0.000000	4.202490	107.007324	-7.313052	0.275293	0.000000	-0.608168	0.000004	0.493881	0.000002	-0.000000	-0.000000	0.000000	0.200000	0.000000	0.904000	0.000000	0.000000	-0.000000	-0.000000	-0.000000	0.000000	0.400000	0.000000	0.302000	0.000000	0.000000	-0.000000	
4.537000	-37.831413	590.479980	100.839760	0.269277	0.000000	-0.480483	0.000028	-1.074749	0.000007	-0.000000	-0.000000	0.000000	0.200000	0.000000	-1.504000	0.000000	0.000000	-0.000000	4.688708	107.329582	-6.668874	0.274173	0.000000	-0.608179	0.000003	0.613795	-0.000001	-0.000000	-0.000000	0.000000	0.200000	0.000000	0.904000	0.000000	0.000000	-0.000000	-0.000000	-0.000000	0.000000	0.400000	0.000000	0.302000	0.000000	0.000000	-0.000000	
4.538000	-38.474903	593.642090	99.871628	0.269334	0.000000	-0.479927	0.000026	-1.150514	0.000005	-0.000000	-0.000000	0.000000	0.200000	0.000000	-1.504000	0.000000	0.000000	-0.000000	4.361988	108.300026	-6.507320	0.271430	0.000000	-0.602464	0.000002	0.402520	0.000001	-0.000000	-0.000000	0.000000	0.200000	0.000000	0.904000	0.000000	0.000000	-0.000000	-0.000000	-0.000000	0.000000	0.400000	0.000000	0.302000	0.000000	0.000000	-0.000000	
4.539000	-39.279270	593.014526	99.387566	0.269722	0.000000	-0.481443	0.000003	-0.938436	0.000001	-0.000000	-0.000000	0.000000	0.200000	0.000000	-1.504000	0.000000	0.000000	-0.000000	4.523031	107.971054	-7.149457	0.274861	0.000000	-0.600356	-0.000002	0.575539	0.000001	-0.000000	-0.000000	0.000000	0.200000	0.000000	0.904000	0.000000	0.000000	-0.000000	-0.000000	-0.000000	0.000000	0.400000	0.000000	0.302000	0.000000	0.000000	-0.000000	
